<?xml version="1.0" encoding="UTF-8"?>
<svg id="_图层_1" data-name="图层 1" xmlns="http://www.w3.org/2000/svg" viewBox="0 0 167.83 169.25">
  <defs>
    <style>
      .cls-1 {
        fill: #f7cb66;
      }
    </style>
  </defs>
  <path class="cls-1" d="M167.83,76.67q-18.6,1.39,0,0c-17.04,22.15-25.03,42.48-27.6,70.31q-12.69-13.67,0,0c-27.94.48-48.82,6.92-72.18,22.26q2.78-18.44,0,0c-17.8-21.55-35.85-33.85-62.41-42.55q16.15-9.33,0,0c5.75-27.35,4.11-49.13-5.65-75.32q17.36,6.81,0,0C24.97,38.82,40.98,23.96,55.37,0q5.5,17.82,0,0c25.39,11.69,46.99,14.94,74.69,11.26q-10.51,15.41,0,0c6.69,27.14,17.61,46.05,37.77,65.42Z"/>
</svg>