<?xml version="1.0" encoding="UTF-8"?>
<svg id="_图层_1" data-name="图层 1" xmlns="http://www.w3.org/2000/svg" xmlns:xlink="http://www.w3.org/1999/xlink" viewBox="0 0 513.73 109.24">
  <defs>
    <clipPath id="clippath">
      <rect x="-5.23" y="-7.12" width="116.36" height="116.36" style="fill: none;"/>
    </clipPath>
    <clipPath id="clippath-1">
      <rect x="-5.23" y="-7.12" width="116.36" height="116.36" style="fill: none;"/>
    </clipPath>
  </defs>
  <g style="clip-path: url(#clippath);">
    <g style="clip-path: url(#clippath-1);">
      <path d="M95.04,47.9q-9.02.68,0,0c-8.26,10.74-12.13,20.6-13.38,34.09q-6.15-6.63,0,0c-13.55.23-23.67,3.36-35,10.8q1.35-8.94,0,0c-8.63-10.45-17.38-16.41-30.26-20.63q7.83-4.52,0,0c2.79-13.26,1.99-23.82-2.74-36.52q8.42,3.3,0,0c12.11-6.09,19.87-13.29,26.85-24.91q2.67,8.64,0,0c12.31,5.67,22.78,7.25,36.21,5.46q-5.09,7.47,0,0c3.24,13.16,8.54,22.33,18.31,31.72" style="fill: #f7cb66;"/>
    </g>
  </g>
  <g>
    <rect x="107.17" y="12.33" width="476.94" height="96.91" style="fill: none;"/>
    <path d="M109.68,66.17l6.09-7.28c3.34,2.91,7.67,4.9,11.53,4.9,4.43,0,6.6-1.74,6.6-4.53,0-2.96-2.67-3.9-6.77-5.59l-6.1-2.6c-4.86-1.98-9.47-5.97-9.47-12.79,0-7.78,6.95-13.99,16.72-13.99,5.4,0,11.06,2.13,15.1,6.15l-5.36,6.69c-3.09-2.37-6.03-3.68-9.74-3.68s-5.99,1.52-5.99,4.21c0,2.88,3.07,3.92,7.17,5.56l5.98,2.42c5.73,2.32,9.31,6.13,9.31,12.77,0,7.79-6.5,14.55-17.68,14.55-6.11,0-12.6-2.31-17.38-6.79Z"/>
    <path d="M151.53,58.54v-22.18h10.58v20.82c0,5.14,1.38,6.75,4.44,6.75,2.66,0,4.28-1.12,6.35-3.93v-23.64h10.58v35.72h-8.64l-.76-4.96h-.26c-2.98,3.56-6.34,5.82-11.22,5.82-7.77,0-11.08-5.48-11.08-14.41Z"/>
    <path d="M192.76,36.37h8.64l.76,4.52h.26c3.01-2.89,6.61-5.39,11.48-5.39,7.77,0,11.08,5.48,11.08,14.41v22.18h-10.58v-20.82c0-5.14-1.38-6.75-4.44-6.75-2.66,0-4.29,1.24-6.61,3.47v24.1h-10.58v-35.72Z"/>
    <path d="M233.94,36.37h8.64l.76,4.52h.26c3.01-2.89,6.61-5.39,11.48-5.39,7.77,0,11.08,5.48,11.08,14.41v22.18h-10.58v-20.82c0-5.14-1.38-6.75-4.44-6.75-2.66,0-4.29,1.24-6.61,3.47v24.1h-10.58v-35.72Z"/>
    <path d="M274.05,85.34l1.88-8.07c.66.17,1.63.46,2.41.46,3.49,0,5.33-1.92,6.25-4.69l.53-1.86-13.78-34.81h10.64l5.11,15.37c1.03,3.24,1.88,6.62,2.82,10.12h.29c.8-3.38,1.59-6.77,2.48-10.12l4.34-15.37h10.13l-12.4,36.11c-3.39,8.95-7.2,13.58-15.6,13.58-2.22,0-3.63-.29-5.09-.72Z"/>
    <path d="M313.52,25.16h11.58l7.61,20.85c.94,2.77,1.76,5.78,2.7,8.67h.29c.94-2.89,1.74-5.9,2.68-8.67l7.38-20.85h11.58v46.93h-9.66v-17.22c0-4.57.86-11.4,1.36-15.94h-.29l-3.85,11.11-6.64,17.98h-5.89l-6.65-17.98-3.74-11.11h-.29c.5,4.54,1.36,11.37,1.36,15.94v17.22h-9.52V25.16Z"/>
    <path d="M365.43,54.24c0-11.59,8.27-18.74,16.85-18.74,10.17,0,15.22,7.4,15.22,17.15,0,1.91-.24,3.81-.44,4.68h-21.37c.95,5.18,4.5,7.56,9.27,7.56,2.7,0,5.13-.82,7.73-2.34l3.5,6.38c-3.66,2.53-8.44,4.02-12.67,4.02-10.18,0-18.07-6.89-18.07-18.71ZM388.45,50.33c0-3.93-1.71-6.76-5.94-6.76-3.34,0-6.23,2.24-6.95,6.76h12.89Z"/>
    <path d="M405.51,59.1v-14.43h-4.88v-7.9l5.47-.41,1.24-9.49h8.75v9.49h8.56v8.31h-8.56v14.3c0,4.05,1.84,5.67,4.62,5.67,1.18,0,2.46-.34,3.4-.68l1.67,7.69c-1.9.6-4.47,1.3-7.94,1.3-8.83,0-12.34-5.58-12.34-13.85Z"/>
    <path d="M428.28,54.24c0-11.59,8.27-18.74,16.85-18.74,10.17,0,15.22,7.4,15.22,17.15,0,1.91-.24,3.81-.44,4.68h-21.37c.95,5.18,4.5,7.56,9.27,7.56,2.7,0,5.13-.82,7.73-2.34l3.5,6.38c-3.66,2.53-8.44,4.02-12.67,4.02-10.18,0-18.07-6.89-18.07-18.71ZM451.31,50.33c0-3.93-1.71-6.76-5.94-6.76-3.34,0-6.23,2.24-6.95,6.76h12.89Z"/>
    <path d="M465.58,54.24c0-11.88,8.36-18.74,17.4-18.74s17.4,6.86,17.4,18.74-8.36,18.71-17.4,18.71-17.4-6.86-17.4-18.71ZM489.53,54.24c0-6.18-2.18-10.2-6.55-10.2s-6.55,4.01-6.55,10.2,2.18,10.17,6.55,10.17,6.55-3.99,6.55-10.17Z"/>
  </g>
</svg>